<svg width="16" height="16" viewBox="0 0 16 16" fill="none" xmlns="http://www.w3.org/2000/svg">
<path fill-rule="evenodd" clip-rule="evenodd" d="M15.4035 4.67606C15.0273 4.24661 14.4843 4.00021 13.9135 3.99997L13.6955 4.00003L12.8895 0.75705C12.7809 0.313141 12.3834 0.000701904 11.9265 0L3.97547 3.05176e-05C3.51866 0.00234985 3.1215 0.313934 3.01051 0.75705L2.20545 4.00003H1.98747C1.41661 4.00021 0.873576 4.24661 0.497447 4.67606C0.119884 5.10733 -0.0554704 5.67929 0.0154524 6.24802L1.00849 14.2481C1.13002 15.2462 1.97599 15.9974 2.98146 16.0001L12.9194 16C13.9249 15.9973 14.7709 15.2461 14.8924 14.248L15.8864 6.24802C15.957 5.67905 15.7812 5.10721 15.4035 4.67606ZM4.75148 2.00003H11.1515L11.6515 4.00003H4.25846L4.75148 2.00003ZM2.98149 14L1.9875 6.00003H13.9135L12.9195 14H2.98149ZM5.96546 8.00003C5.4159 8.00388 4.97242 8.45047 4.97242 9.00003L4.97245 11C4.96095 11.3625 5.14775 11.7025 5.45988 11.8871C5.77201 12.0717 6.15992 12.0717 6.47203 11.8871C6.78416 11.7025 6.97096 11.3625 6.95945 11V9.00003C6.95948 8.4501 6.51539 8.00333 5.96546 8.00003ZM9.94148 8.00003C9.39155 8.00333 8.94746 8.4501 8.94746 9.00003L8.94749 11C8.94752 11.549 9.39253 11.994 9.94151 11.994C10.4905 11.994 10.9355 11.549 10.9355 11V9.00003C10.9355 8.44888 10.4896 8.00168 9.93846 8.00003H9.94148Z" fill="#22262A"/>
</svg>
