<svg width="16" height="17" viewBox="0 0 16 17" fill="none" xmlns="http://www.w3.org/2000/svg">
<path fill-rule="evenodd" clip-rule="evenodd" d="M12.9611 11.5C13.912 11.4984 14.7293 10.8251 14.913 9.89203L15.913 4.89203C16.0304 4.30524 15.8787 3.69672 15.4998 3.23358C15.1209 2.77039 14.5545 2.50128 13.956 2.5H4.00005V1.5C4.00005 0.947693 3.55233 0.5 3.00005 0.5H1.00906C0.456779 0.5 0.00905597 0.947693 0.00905597 1.5C0.00905597 2.05231 0.456779 2.5 1.00906 2.5H2.00906V12.5C1.19933 12.4964 0.467277 12.9813 0.154899 13.7284C-0.157509 14.4755 0.0113753 15.3372 0.582664 15.911C1.15395 16.4849 2.01488 16.6577 2.76333 16.3486C3.5118 16.0396 4.00005 15.3098 4.00005 14.5H10.969C10.9734 15.5991 11.8672 16.4869 12.9663 16.4839C14.0654 16.481 14.9545 15.5884 14.953 14.4893C14.9515 13.3902 14.0601 12.4999 12.961 12.4999L4.00005 12.5V11.5H12.9611ZM13.9611 4.5L12.9611 9.5H4.00005V4.5H13.956H13.9611Z" fill="#33A0FF"/>
</svg>
