<svg width="46" height="46" viewBox="0 0 46 46" fill="none" xmlns="http://www.w3.org/2000/svg">
<circle opacity="0.25" cx="23" cy="23" r="22" stroke="#33A0FF" stroke-width="2"/>
<path fill-rule="evenodd" clip-rule="evenodd" d="M27.9611 26C28.912 25.9984 29.7293 25.3251 29.913 24.392L30.913 19.392C31.0304 18.8052 30.8787 18.1967 30.4998 17.7336C30.1209 17.2704 29.5545 17.0013 28.956 17H19.0001V16C19.0001 15.4477 18.5523 15 18.0001 15H16.0091C15.4568 15 15.0091 15.4477 15.0091 16C15.0091 16.5523 15.4568 17 16.0091 17H17.0091V27C16.1993 26.9964 15.4673 27.4813 15.1549 28.2284C14.8425 28.9755 15.0114 29.8372 15.5827 30.411C16.154 30.9849 17.0149 31.1577 17.7633 30.8486C18.5118 30.5396 19.0001 29.8098 19.0001 29H25.969C25.9734 30.0991 26.8672 30.9869 27.9663 30.9839C29.0654 30.981 29.9545 30.0884 29.953 28.9893C29.9515 27.8902 29.0601 26.9999 27.961 26.9999L19.0001 27V26H27.9611ZM28.9611 19L27.9611 24H19.0001V19H28.956H28.9611Z" fill="#33A0FF"/>
</svg>
