<svg width="8" height="16" viewBox="0 0 8 16" fill="none" xmlns="http://www.w3.org/2000/svg">
<path d="M0.244057 8.0582H1.90251V14.8859C1.90251 15.0207 2.01173 15.1299 2.14655 15.1299H4.95857C5.09337 15.1299 5.20259 15.0207 5.20259 14.8859V8.09038H7.10918C7.23314 8.09038 7.33745 7.99735 7.35161 7.87422L7.64116 5.36061C7.64912 5.29146 7.62724 5.22219 7.58095 5.1703C7.53465 5.11838 7.46835 5.08865 7.39879 5.08865H5.20271V3.51298C5.20271 3.03801 5.45845 2.79715 5.96294 2.79715C6.03482 2.79715 7.39879 2.79715 7.39879 2.79715C7.53362 2.79715 7.64284 2.68787 7.64284 2.55312V0.245832C7.64284 0.111022 7.53362 0.00180259 7.39879 0.00180259H5.41994C5.40599 0.00112292 5.37498 0 5.3293 0C4.98595 0 3.7925 0.067405 2.84975 0.934687C1.80518 1.89579 1.95041 3.04652 1.98509 3.24605V5.08859H0.244026C0.109215 5.08859 0 5.19781 0 5.33262V7.81414C3.05176e-05 7.94892 0.109245 8.0582 0.244057 8.0582Z" fill="white"/>
</svg>
