<svg width="46" height="46" viewBox="0 0 46 46" fill="none" xmlns="http://www.w3.org/2000/svg">
<circle opacity="0.25" cx="23" cy="23" r="22" stroke="#33A0FF" stroke-width="2"/>
<path fill-rule="evenodd" clip-rule="evenodd" d="M25.9825 18C27.1622 18.002 28.2313 18.6952 28.7144 19.7714C29.1976 20.8477 29.0051 22.1072 28.2225 22.99C27.6725 23.61 22.9825 28 22.9825 28C22.9825 28 18.2825 23.61 17.7325 22.98C17.2474 22.4348 16.9804 21.7298 16.9826 21C16.9826 19.3431 18.3257 18 19.9826 18C21.6395 18 22.9826 19.3431 22.9826 21C22.9826 19.3431 24.3257 18 25.9825 18ZM25.9825 16C24.9004 15.9981 23.8471 16.3492 22.9825 17.0001C20.9313 15.4755 18.0606 15.7433 16.3267 17.6209C14.5928 19.4984 14.554 22.3813 16.2366 24.3049C16.7986 24.949 20.4976 28.413 21.6176 29.459C22.3864 30.1779 23.5807 30.1779 24.3495 29.459C25.4656 28.414 29.1495 24.959 29.7186 24.316C31.0227 22.8442 31.343 20.7447 30.5372 18.951C29.7313 17.1573 27.949 16.0024 25.9825 16Z" fill="#33A0FF"/>
</svg>
