<svg width="16" height="15" viewBox="0 0 16 15" fill="none" xmlns="http://www.w3.org/2000/svg">
<path fill-rule="evenodd" clip-rule="evenodd" d="M10.9825 2.50001C12.1622 2.50196 13.2313 3.1952 13.7144 4.27143C14.1976 5.34766 14.0051 6.60719 13.2225 7.49C12.6725 8.10999 7.98254 12.5 7.98254 12.5C7.98254 12.5 3.28253 8.10999 2.73254 7.47999C2.24744 6.93482 1.98041 6.22981 1.9826 5.50001C1.9826 3.84315 3.32574 2.50001 4.9826 2.50001C6.63946 2.50001 7.9826 3.84315 7.9826 5.50001C7.9826 3.84315 9.32574 2.50001 10.9825 2.50001ZM10.9825 0.500008C9.90039 0.498055 8.84711 0.84919 7.98254 1.50007C5.93133 -0.024467 3.06061 0.243294 1.32672 2.12086C-0.407166 3.99842 -0.446046 6.88129 1.23657 8.80494C1.79858 9.44898 5.49756 12.913 6.61755 13.959C7.38635 14.6779 8.58075 14.6779 9.34955 13.959C10.4656 12.914 14.1495 9.45899 14.7186 8.81599C16.0227 7.34418 16.343 5.2447 15.5372 3.451C14.7313 1.6573 12.949 0.50245 10.9825 0.500008Z" fill="#33A0FF"/>
</svg>
