<svg width="191" height="26" viewBox="0 0 191 26" fill="none" xmlns="http://www.w3.org/2000/svg">
<path d="M13.032 25C17.604 25 20.016 22.12 20.016 18.52C20.016 15.496 17.964 13.012 15.408 12.616C17.676 12.148 19.548 10.132 19.548 7.108C19.548 3.904 17.208 0.987995 12.636 0.987995H0V25H13.032ZM11.52 10.6H5.112V5.38H11.52C13.248 5.38 14.328 6.496 14.328 8.008C14.328 9.52 13.248 10.6 11.52 10.6ZM11.7 20.572H5.112V14.992H11.7C13.716 14.992 14.796 16.288 14.796 17.8C14.796 19.528 13.644 20.572 11.7 20.572ZM38.844 25.432C46.116 25.432 51.408 20.248 51.408 13.012C51.408 5.776 46.116 0.591995 38.844 0.591995C31.608 0.591995 26.316 5.776 26.316 13.012C26.316 20.248 31.608 25.432 38.844 25.432ZM38.844 20.896C34.416 20.896 31.572 17.476 31.572 13.012C31.572 8.512 34.416 5.12799 38.844 5.12799C43.272 5.12799 46.152 8.512 46.152 13.012C46.152 17.476 43.272 20.896 38.844 20.896ZM69.444 25.432C76.752 25.432 80.28 21.364 80.28 15.388V0.987995H75.06V15.244C75.06 18.592 73.152 20.896 69.444 20.896C65.736 20.896 63.792 18.592 63.792 15.244V0.987995H58.608V15.424C58.608 21.328 62.136 25.432 69.444 25.432ZM110.088 25V0.987995H104.976V16.072L93.852 0.987995H88.596V25H93.708V9.34L105.156 25H110.088ZM130.068 25.432C135.36 25.432 138.384 22.516 140.112 19.528L135.72 17.404C134.712 19.384 132.552 20.896 130.068 20.896C125.712 20.896 122.544 17.548 122.544 13.012C122.544 8.476 125.712 5.12799 130.068 5.12799C132.552 5.12799 134.712 6.676 135.72 8.62L140.112 6.46C138.42 3.47199 135.36 0.591995 130.068 0.591995C122.868 0.591995 117.288 5.63199 117.288 13.012C117.288 20.392 122.868 25.432 130.068 25.432ZM163.764 25V20.5H151.884V15.064H163.512V10.564H151.884V5.488H163.764V0.987995H146.772V25H163.764ZM190.8 25L185.4 15.856C187.992 15.244 190.656 12.976 190.656 8.72799C190.656 4.26399 187.596 0.987995 182.592 0.987995H171.36V25H176.472V16.468H180.216L184.932 25H190.8ZM181.836 11.968H176.472V5.488H181.836C183.888 5.488 185.436 6.712 185.436 8.72799C185.436 10.744 183.888 11.968 181.836 11.968Z" fill="#FF4252"/>
</svg>
