<svg width="39" height="26" viewBox="0 0 39 26" fill="none" xmlns="http://www.w3.org/2000/svg">
<path d="M2.15906 0H37.1324C38.0522 0 38.7979 0.776367 38.7979 1.73389V23.4077C38.7979 24.3657 38.0522 25.1416 37.1324 25.1416H2.15906C1.23926 25.1416 0.493652 24.3657 0.493652 23.4077V1.73389C0.493652 0.776367 1.23926 0 2.15906 0Z" fill="#5870BE"/>
<path d="M17.2485 12.5674C17.2485 7.60645 21.2687 3.58594 26.2281 3.58594C31.1876 3.58594 35.2065 7.60645 35.2065 12.5674C35.2065 17.5264 31.1876 21.5483 26.2281 21.5483C21.2687 21.5483 17.2485 17.5264 17.2485 12.5674Z" fill="#FFAF38"/>
<path d="M12.47 21.5464C7.51868 21.5464 3.49048 17.5176 3.49048 12.5659C3.49048 7.61475 7.51868 3.58643 12.47 3.58643C15.3254 3.58643 17.9464 4.89844 19.6608 7.18652H18.4604V7.78711H20.0736C20.1945 7.97852 20.3087 8.17627 20.4143 8.37598H17.8602V8.97656H20.7034C20.791 9.17725 20.8702 9.37891 20.9399 9.57666H17.2599V10.1772H21.1283C21.3418 10.9521 21.4495 11.7554 21.4495 12.5659C21.4495 13.5957 21.2769 14.605 20.9363 15.5659H17.2599V16.166H20.6989C20.6085 16.3726 20.5123 16.5708 20.4141 16.7568H17.8602V17.3569H20.0665C19.9337 17.5669 19.7943 17.7681 19.6532 17.9561H18.4604V18.5562H19.1603C17.4576 20.457 15.0188 21.5464 12.47 21.5464Z" fill="#E63737"/>
<path d="M2.49284 9.85291L3.11839 9.93318L4.12825 13.7146L4.17897 13.7211L6.11089 10.3172L6.73645 10.3975L6.18104 14.7256L5.69074 14.6627L6.11272 11.3743L6.07045 11.3689L4.29593 14.4837L3.82254 14.423L2.89197 10.961L2.8497 10.9556L2.42772 14.244L1.93743 14.1811L2.49284 9.85291ZM7.66341 14.9932C7.45771 14.9668 7.276 14.9041 7.11829 14.8051C6.96075 14.7047 6.84216 14.5742 6.76252 14.4136C6.68307 14.2516 6.6569 14.0649 6.68402 13.8536C6.70788 13.6676 6.76386 13.5215 6.85195 13.4154C6.94021 13.3079 7.04989 13.2289 7.18096 13.1784C7.31203 13.1279 7.45361 13.0959 7.6057 13.0825C7.75939 13.0679 7.91287 13.0603 8.06615 13.06C8.26665 13.0599 8.42901 13.0614 8.55321 13.0645C8.679 13.0663 8.77215 13.0546 8.83267 13.0294C8.89459 13.0044 8.9307 12.9518 8.94101 12.8715L8.94318 12.8546C8.96994 12.6461 8.93367 12.4767 8.83437 12.3465C8.73649 12.2165 8.57272 12.1368 8.34307 12.1073C8.10496 12.0768 7.91159 12.105 7.76296 12.1919C7.61432 12.2788 7.50494 12.3779 7.43481 12.4892L6.98311 12.2593C7.09296 12.073 7.22538 11.9338 7.38037 11.842C7.53695 11.749 7.70187 11.6914 7.87514 11.6692C8.04999 11.6458 8.21913 11.6446 8.38257 11.6656C8.48683 11.679 8.60496 11.707 8.73696 11.7497C8.87055 11.7912 8.99586 11.8582 9.1129 11.9505C9.23134 12.043 9.32298 12.1715 9.38781 12.3359C9.45264 12.5003 9.46851 12.7115 9.43542 12.9693L9.16097 15.108L8.66222 15.044L8.71863 14.6044L8.69327 14.6012C8.65041 14.6673 8.58439 14.7354 8.49518 14.8056C8.40598 14.8758 8.29225 14.9307 8.15399 14.9702C8.01573 15.0097 7.8522 15.0174 7.66341 14.9932ZM7.79698 14.5549C7.99423 14.5802 8.16545 14.5628 8.31065 14.5027C8.45726 14.4427 8.57294 14.3559 8.65771 14.2422C8.74388 14.1286 8.79565 14.0042 8.813 13.869L8.87158 13.4125C8.8472 13.4352 8.79772 13.4524 8.72315 13.4643C8.65018 13.475 8.5662 13.4822 8.47122 13.4857C8.37784 13.4881 8.28674 13.4893 8.19795 13.4893C8.11074 13.4882 8.03991 13.4877 7.98547 13.4878C7.85368 13.4881 7.72899 13.5 7.6114 13.5236C7.49539 13.546 7.39808 13.59 7.31946 13.6558C7.24243 13.7204 7.19578 13.8161 7.17951 13.9429C7.15727 14.1162 7.20457 14.2555 7.32139 14.3607C7.43979 14.4647 7.59833 14.5294 7.79698 14.5549ZM12.2475 12.9435L11.7832 13.0128C11.7647 12.9345 11.7324 12.8566 11.6865 12.7791C11.6422 12.7004 11.5765 12.6318 11.4895 12.5734C11.4025 12.515 11.2864 12.4765 11.1413 12.4578C10.9426 12.4323 10.7712 12.4569 10.627 12.5315C10.4844 12.6048 10.4042 12.7112 10.3863 12.8507C10.3704 12.9747 10.4029 13.0784 10.4838 13.1618C10.5648 13.2453 10.698 13.3232 10.8834 13.3957L11.3501 13.5759C11.6313 13.6836 11.8337 13.8191 11.9574 13.9825C12.0813 14.1445 12.1286 14.3389 12.0995 14.5657C12.0757 14.7517 12.0008 14.911 11.8749 15.0438C11.7504 15.1768 11.5877 15.2733 11.3866 15.3335C11.1856 15.3936 10.959 15.4075 10.7068 15.3751C10.3757 15.3326 10.1109 15.2256 9.91234 15.0541C9.71381 14.8825 9.60338 14.655 9.58105 14.3714L10.0696 14.3138C10.0923 14.4943 10.1607 14.6363 10.2749 14.7397C10.3905 14.8433 10.5504 14.9082 10.7547 14.9345C10.9872 14.9643 11.1781 14.9387 11.3274 14.8576C11.4783 14.7753 11.5627 14.6644 11.5806 14.5249C11.5951 14.4122 11.5677 14.3127 11.4986 14.2265C11.4297 14.1389 11.3159 14.0656 11.1574 14.0066L10.6326 13.8103C10.3444 13.7017 10.14 13.5645 10.0195 13.3987C9.90059 13.2316 9.85551 13.0361 9.88426 12.8121C9.90776 12.6289 9.97998 12.4735 10.1009 12.3458C10.2232 12.2183 10.379 12.1259 10.5683 12.0685C10.7589 12.0114 10.9684 11.9974 11.1966 12.0267C11.5178 12.0679 11.761 12.1707 11.9261 12.3351C12.0925 12.4997 12.1997 12.7025 12.2475 12.9435ZM14.1162 12.4443L14.0619 12.867L12.3797 12.6511L12.4339 12.2285L14.1162 12.4443ZM13.024 11.5137L13.5228 11.5777L13.1258 14.6716C13.1077 14.8125 13.1145 14.9208 13.1464 14.9965C13.1798 15.0709 13.2273 15.1243 13.2891 15.1566C13.3524 15.1876 13.4207 15.2078 13.494 15.2172C13.5489 15.2243 13.5944 15.2272 13.6303 15.2261C13.6664 15.2236 13.6953 15.2216 13.717 15.2201L13.7609 15.6811C13.7255 15.6895 13.6767 15.6961 13.6145 15.701C13.5521 15.7073 13.4744 15.7045 13.3814 15.6926C13.2405 15.6745 13.1063 15.6265 12.9789 15.5485C12.8528 15.4708 12.7533 15.3642 12.6805 15.2288C12.609 15.0936 12.5854 14.9317 12.6096 14.7429L13.024 11.5137ZM15.321 15.9672C15.0082 15.9271 14.7472 15.8234 14.5381 15.6563C14.3306 15.4878 14.1815 15.2711 14.091 15.006C14.002 14.7397 13.9788 14.4402 14.0215 14.1077C14.0642 13.7752 14.1624 13.49 14.3161 13.2519C14.4714 13.0126 14.6673 12.8358 14.904 12.7216C15.1422 12.6061 15.4078 12.5671 15.7009 12.6047C15.87 12.6264 16.0333 12.676 16.1909 12.7535C16.3485 12.831 16.4868 12.9419 16.6058 13.086C16.725 13.2288 16.8114 13.4089 16.8651 13.6263C16.9189 13.8437 16.9263 14.1039 16.8874 14.4068L16.8603 14.6181L14.3581 14.297L14.4134 13.8659L16.4084 14.1219C16.4319 13.9387 16.4163 13.7706 16.3615 13.6175C16.308 13.4646 16.2197 13.3379 16.0966 13.2376C15.9748 13.1375 15.8237 13.0759 15.6434 13.0528C15.4447 13.0273 15.2665 13.0545 15.1088 13.1345C14.9526 13.2133 14.8257 13.3259 14.7281 13.4723C14.6306 13.6188 14.5703 13.7815 14.5474 13.9604L14.5105 14.2478C14.479 14.493 14.4946 14.7062 14.5573 14.8875C14.6215 15.0676 14.724 15.2118 14.8648 15.3201C15.0058 15.427 15.177 15.4933 15.3785 15.5192C15.5095 15.536 15.6302 15.5329 15.7405 15.5098C15.8525 15.4855 15.952 15.441 16.0391 15.3763C16.1263 15.3101 16.1983 15.2234 16.2551 15.1161L16.7196 15.3132C16.6479 15.4701 16.5442 15.6029 16.4085 15.7115C16.273 15.8187 16.1128 15.8956 15.9278 15.942C15.743 15.987 15.5407 15.9954 15.321 15.9672ZM16.9861 16.1122L17.4026 12.8661L17.8845 12.9279L17.8216 13.4182L17.8554 13.4225C17.9352 13.2695 18.059 13.1529 18.2268 13.0728C18.3946 12.9926 18.5757 12.965 18.7701 12.99C18.8068 12.9947 18.8525 13.0013 18.9072 13.0097C18.962 13.0182 19.0033 13.0256 19.0311 13.0321L18.966 13.5393C18.9497 13.5329 18.9117 13.5216 18.8522 13.5053C18.7943 13.4879 18.7323 13.4749 18.666 13.4664C18.5082 13.4462 18.3631 13.4612 18.2306 13.5115C18.0997 13.5606 17.991 13.6383 17.9043 13.7446C17.8192 13.8497 17.7672 13.9755 17.7484 14.122L17.4848 16.1762L16.9861 16.1122ZM22.6863 13.819L22.1622 13.7518C22.1505 13.5971 22.1133 13.4577 22.0504 13.3336C21.989 13.2097 21.9083 13.102 21.8083 13.0104C21.71 12.9176 21.5971 12.8429 21.4697 12.7865C21.3424 12.73 21.2068 12.6926 21.0631 12.6742C20.8011 12.6405 20.5552 12.6763 20.3254 12.7814C20.0971 12.8867 19.9037 13.0603 19.7452 13.302C19.5881 13.5439 19.4856 13.8523 19.4375 14.227C19.3894 14.6018 19.4108 14.9261 19.5017 15.1998C19.594 15.4737 19.7373 15.6905 19.9317 15.85C20.1274 16.0097 20.3563 16.1064 20.6184 16.1401C20.7621 16.1585 20.9027 16.1565 21.0402 16.134C21.1777 16.1116 21.3056 16.0686 21.4241 16.005C21.5441 15.9402 21.6495 15.8556 21.7402 15.7513C21.8325 15.6457 21.9037 15.5202 21.9539 15.3748L22.478 15.4421C22.4102 15.6582 22.3129 15.847 22.1862 16.0083C22.0596 16.1696 21.9109 16.3016 21.7402 16.4043C21.5696 16.5056 21.3838 16.5755 21.1826 16.6142C20.9829 16.653 20.7738 16.6584 20.5554 16.6304C20.1863 16.583 19.8696 16.4507 19.6053 16.2335C19.3411 16.0162 19.1478 15.7308 19.0257 15.3772C18.9035 15.0235 18.8717 14.6184 18.9303 14.1619C18.9888 13.7055 19.1219 13.3215 19.3294 13.0102C19.5369 12.6989 19.7959 12.4715 20.1065 12.328C20.4171 12.1845 20.7569 12.1365 21.126 12.1839C21.3444 12.2119 21.5453 12.2699 21.7288 12.3579C21.9137 12.4461 22.0758 12.5614 22.215 12.7038C22.3544 12.8449 22.4651 13.0094 22.5469 13.1975C22.6289 13.3842 22.6754 13.5914 22.6863 13.819ZM23.5829 17.036C23.3772 17.0096 23.1955 16.9469 23.0377 16.8479C22.8802 16.7475 22.7616 16.617 22.682 16.4564C22.6025 16.2944 22.5764 16.1078 22.6035 15.8964C22.6273 15.7105 22.6833 15.5644 22.7714 15.4583C22.8597 15.3507 22.9693 15.2717 23.1004 15.2212C23.2315 15.1707 23.3731 15.1388 23.5252 15.1254C23.6788 15.1107 23.8323 15.1032 23.9856 15.1028C24.1861 15.1028 24.3485 15.1043 24.4727 15.1073C24.5985 15.1091 24.6916 15.0975 24.7521 15.0723C24.8141 15.0473 24.8502 14.9947 24.8605 14.9143L24.8626 14.8974C24.8894 14.6889 24.8531 14.5196 24.7538 14.3894C24.6559 14.2594 24.4922 14.1797 24.2625 14.1502C24.0244 14.1197 23.8311 14.1478 23.6824 14.2347C23.5338 14.3216 23.4244 14.4207 23.3543 14.532L22.9026 14.3022C23.0124 14.1158 23.1448 13.9767 23.2998 13.8849C23.4564 13.7918 23.6213 13.7342 23.7946 13.7121C23.9695 13.6887 24.1386 13.6875 24.302 13.7085C24.4063 13.7218 24.5244 13.7499 24.6564 13.7926C24.79 13.8341 24.9153 13.901 25.0324 13.9934C25.1508 14.0859 25.2424 14.2144 25.3073 14.3788C25.3721 14.5432 25.388 14.7543 25.3549 15.0122L25.0804 17.1509L24.5817 17.0869L24.6381 16.6473L24.6127 16.644C24.5699 16.7101 24.5038 16.7783 24.4146 16.8485C24.3254 16.9187 24.2117 16.9735 24.0734 17.0131C23.9352 17.0526 23.7717 17.0603 23.5829 17.036ZM23.7164 16.5978C23.9137 16.6231 24.0849 16.6057 24.2301 16.5455C24.3767 16.4856 24.4924 16.3987 24.5772 16.285C24.6633 16.1715 24.7151 16.0471 24.7325 15.9118L24.791 15.4554C24.7667 15.478 24.7172 15.4953 24.6426 15.5072C24.5696 15.5179 24.4857 15.525 24.3907 15.5286C24.2973 15.5309 24.2062 15.5321 24.1174 15.5322C24.0302 15.531 23.9594 15.5305 23.9049 15.5307C23.7731 15.531 23.6485 15.5429 23.5309 15.5665C23.4149 15.5888 23.3175 15.6329 23.2389 15.6987C23.1619 15.7633 23.1152 15.859 23.099 15.9858C23.0767 16.1591 23.124 16.2983 23.2408 16.4036C23.3593 16.5075 23.5178 16.5723 23.7164 16.5978ZM25.5444 17.2104L25.961 13.9643L26.4428 14.0261L26.3799 14.5164L26.4137 14.5208C26.4935 14.3678 26.6173 14.2512 26.7851 14.171C26.9529 14.0909 27.1341 14.0633 27.3285 14.0882C27.3651 14.0929 27.4108 14.0995 27.4656 14.108C27.5203 14.1164 27.5616 14.1239 27.5895 14.1303L27.5244 14.6375C27.508 14.6311 27.4701 14.6198 27.4106 14.6036C27.3527 14.5861 27.2906 14.5732 27.2244 14.5647C27.0666 14.5444 26.9214 14.5594 26.789 14.6097C26.6581 14.6588 26.5493 14.7365 26.4626 14.8428C26.3775 14.9479 26.3256 15.0737 26.3068 15.2202L26.0432 17.2744L25.5444 17.2104ZM28.4306 17.6495C28.1601 17.6148 27.9301 17.5158 27.7405 17.3526C27.5511 17.1879 27.414 16.9727 27.3293 16.7069C27.2447 16.4397 27.2245 16.1343 27.2686 15.7905C27.3123 15.4495 27.4088 15.1612 27.5579 14.9254C27.707 14.6896 27.8946 14.5168 28.1207 14.4069C28.3467 14.2969 28.5964 14.2595 28.8697 14.2946C29.0811 14.3217 29.2435 14.3784 29.357 14.4645C29.4722 14.5495 29.5564 14.6405 29.6098 14.7376C29.6649 14.8334 29.7071 14.9119 29.7365 14.9729L29.7787 14.9784L29.9837 13.3807L30.4825 13.4447L29.9271 17.7728L29.4452 17.711L29.5092 17.2122L29.4501 17.2046C29.4058 17.2591 29.3441 17.3271 29.2649 17.4086C29.1859 17.4887 29.0792 17.5559 28.9448 17.6102C28.8105 17.6632 28.6391 17.6763 28.4306 17.6495ZM28.5557 17.2102C28.7558 17.2358 28.9316 17.2054 29.083 17.1189C29.2346 17.0309 29.3583 16.8986 29.454 16.7218C29.5499 16.5437 29.6136 16.332 29.6451 16.0868C29.6762 15.8445 29.6682 15.628 29.621 15.4372C29.5741 15.245 29.4881 15.0893 29.363 14.9701C29.2382 14.8496 29.0743 14.7763 28.8714 14.7502C28.6601 14.7231 28.477 14.7548 28.3222 14.8452C28.169 14.9343 28.0453 15.0667 27.9512 15.2422C27.8586 15.4165 27.7977 15.6178 27.7684 15.846C27.7388 16.0771 27.747 16.2915 27.7933 16.4894C27.8411 16.686 27.9276 16.8489 28.0528 16.9781C28.1796 17.1061 28.3472 17.1834 28.5557 17.2102Z" fill="white"/>
</svg>
