<svg width="39" height="26" viewBox="0 0 39 26" fill="none" xmlns="http://www.w3.org/2000/svg">
<path d="M2.34143 0.161621H37.076C37.9896 0.161621 38.7302 0.937988 38.7302 1.896V23.5693C38.7302 24.5269 37.9896 25.3032 37.076 25.3032H2.34143C1.42786 25.3032 0.6875 24.5269 0.6875 23.5693V1.896C0.6875 0.937988 1.42786 0.161621 2.34143 0.161621Z" fill="#F1F1F1"/>
<path d="M1.09595 24.7119L1.09619 24.7104C0.832275 24.3945 0.687012 23.9893 0.687012 23.5698V1.896C0.687012 0.939453 1.4292 0.161133 2.34143 0.161133H37.0757C37.4949 0.161133 37.8947 0.325684 38.2017 0.625L1.09595 24.7119Z" fill="white" fill-opacity="0.729412"/>
<path d="M15.3363 18.123L16.6322 15.7729L15.9078 10.1289H17.6791L17.9648 13.4692L19.698 10.1289H21.5259L17.317 18.123H15.3363ZM9.78369 13.9067C10.0571 12.5332 11.38 12.0972 13.3458 12.0972C13.4629 11.4863 13.0736 11.3335 12.4122 11.356C11.7495 11.3779 10.9513 11.6182 10.7185 11.7485L10.8738 10.3755C11.3602 10.2656 12.0229 10.0269 12.8593 10.0269C14.0848 10.0044 15.4485 10.396 15.1368 11.9888L14.3781 15.7383H12.6068L12.7225 15.1704C12.3419 15.5884 11.7186 15.8467 11.1401 15.8467C10.2993 15.8467 9.5531 15.3008 9.78369 13.9067ZM11.5944 13.8193C11.3406 14.2554 11.6719 14.626 12.0612 14.604C12.5095 14.583 12.8987 14.3638 12.9961 13.8623C13.0145 13.6885 13.054 13.5361 13.0934 13.3623C12.9369 13.3623 12.8014 13.3623 12.645 13.3623C12.3334 13.3623 11.7889 13.4487 11.5944 13.8193ZM3.68286 15.7383L5.14734 8.56592H8.45459C9.42395 8.56592 10.5522 9.32959 10.2159 11.0073C9.91919 12.4888 8.81055 13.3623 7.48401 13.3623H6.09827L5.6228 15.7383H3.68286ZM6.37537 11.9888H7.28564C7.78088 11.9888 8.276 11.5527 8.39429 11.0073C8.53345 10.4629 8.21692 10.0269 7.74146 10.0269H6.79175L6.37537 11.9888Z" fill="#3284AE"/>
<path d="M26.9967 13.9062C27.2726 12.5322 28.6134 12.0977 30.6031 12.0977C30.7411 11.4858 30.347 11.3345 29.6772 11.3564C29.0074 11.3774 28.1997 11.6177 27.9436 11.748L28.1012 10.375C28.6134 10.2656 29.2832 10.0269 30.1304 10.0269C31.3715 10.0044 32.7308 10.396 32.4155 11.9883L31.6472 15.7373H29.8743L29.9924 15.1709C29.599 15.5884 28.9633 15.8467 28.3746 15.8467C27.5192 15.8467 26.7633 15.3013 26.9967 13.9062ZM28.8301 13.8188C28.574 14.2549 28.9286 14.6255 29.3226 14.6035C29.7758 14.5825 30.15 14.3633 30.2485 13.8633C30.288 13.6885 30.3076 13.5356 30.347 13.3623C30.2091 13.3623 30.0515 13.3623 29.9136 13.3623C29.5787 13.3623 29.0271 13.4482 28.8301 13.8188ZM32.4661 15.7373L33.9325 8.54297H35.7523L34.2675 15.7373H32.4661ZM20.897 15.7373L22.3585 8.56641H25.6571C26.6052 8.56641 27.7502 9.32861 27.4142 11.0068C27.1187 12.4893 26.0129 13.3623 24.6696 13.3623H23.3066L22.8129 15.7373H20.897ZM23.5836 11.9883H24.4713C24.9663 11.9883 25.4797 11.5522 25.598 11.0068C25.7162 10.4624 25.4207 10.0269 24.927 10.0269H23.9789L23.5836 11.9883Z" fill="#3CA9C7"/>
</svg>
