<svg width="17" height="16" viewBox="0 0 17 16" fill="none" xmlns="http://www.w3.org/2000/svg">
<path fill-rule="evenodd" clip-rule="evenodd" d="M15.8945 13.343C15.1123 11.2599 13.5062 9.59121 11.4545 8.72995C12.572 7.81216 13.2251 6.44604 13.2375 5C13.1962 2.40698 11.2019 0.264584 8.61851 0.0379295C8.21007 -0.0126686 7.79692 -0.0126381 7.3885 0.0379906C4.80669 0.266567 2.81462 2.40841 2.77351 5C2.78551 6.44613 3.43861 7.81244 4.5565 8.73001C2.50435 9.59094 0.897841 11.2597 0.115462 13.343C-0.106401 13.9553 -0.00450248 14.6382 0.386458 15.159C0.791335 15.693 1.42439 16.0047 2.09453 16H13.9235C14.593 16.0045 15.2254 15.6927 15.6295 15.159C16.0195 14.6375 16.1192 13.9542 15.8945 13.343ZM4.86653 5C4.89519 3.42865 6.11531 2.13745 7.68251 2.01995C7.89802 1.99328 8.11601 1.99328 8.33156 2.01995C9.91481 2.26269 11.0304 3.70327 10.8692 5.29693C10.7081 6.89062 9.32667 8.07867 7.72682 7.99951C6.127 7.92038 4.86961 6.60177 4.86653 5ZM2.09254 14C3.06209 11.5839 5.4037 10.0005 8.00703 10.0005C10.6104 10.0005 12.952 11.5839 13.9216 14H2.09453H2.09254Z" fill="#22262A"/>
</svg>
