<svg width="16" height="16" viewBox="0 0 16 16" fill="none" xmlns="http://www.w3.org/2000/svg">
<path fill-rule="evenodd" clip-rule="evenodd" d="M15.705 14.2053L10.905 9.38328C12.4855 7.1367 12.3247 4.10057 10.5155 2.03361C8.70643 -0.0333419 5.71836 -0.595048 3.28221 0.673934C0.846018 1.94292 -0.406332 4.71342 0.250529 7.3806C0.907419 10.0478 3.30314 11.9198 6.05 11.9123C7.28959 11.9123 8.49732 11.5221 9.5023 10.7971L14.302 15.6193C14.4881 15.8068 14.7413 15.9123 15.0055 15.9123C15.2696 15.9123 15.5229 15.8068 15.709 15.6193C16.0982 15.2277 16.0965 14.5947 15.705 14.2053ZM6.05 9.91228C4.43019 9.92119 2.96491 8.95225 2.33885 7.4583C1.71281 5.96434 2.04957 4.24028 3.19181 3.09172C4.33405 1.94316 6.05625 1.59691 7.55363 2.2147C9.05103 2.8325 10.028 4.2924 10.028 5.91228C10.0341 8.11534 8.25309 9.90623 6.05 9.91228Z" fill="#22262A"/>
</svg>
