<svg width="15" height="13" viewBox="0 0 15 13" fill="none" xmlns="http://www.w3.org/2000/svg">
<path d="M14.6327 1.6194C14.0885 1.85809 13.5087 2.01631 12.9042 2.09313C13.5261 1.72183 14.0007 1.13835 14.2239 0.43507C13.6441 0.780758 13.0039 1.02494 12.3216 1.16121C11.7711 0.574989 10.9864 0.211914 10.1304 0.211914C8.46958 0.211914 7.13252 1.55996 7.13252 3.21254C7.13252 3.45031 7.15264 3.67895 7.20203 3.89661C4.70807 3.77498 2.50128 2.57967 1.0188 0.758812C0.759986 1.20786 0.608172 1.72183 0.608172 2.27513C0.608172 3.31404 1.14318 4.23499 1.94066 4.76817C1.4587 4.75903 0.985878 4.61911 0.585308 4.3987C0.585308 4.40784 0.585308 4.41973 0.585308 4.43162C0.585308 5.8894 1.62514 7.10025 2.98873 7.3792C2.74454 7.44595 2.47841 7.47796 2.20222 7.47796C2.01017 7.47796 1.81628 7.46699 1.63429 7.42675C2.02297 8.61474 3.12591 9.48812 4.43736 9.51648C3.41673 10.3149 2.12082 10.7959 0.717916 10.7959C0.471904 10.7959 0.235952 10.7849 0 10.7548C1.32883 11.6117 2.90367 12.101 4.60198 12.101C10.1222 12.101 13.1402 7.52826 13.1402 3.56463C13.1402 3.43203 13.1356 3.30399 13.1292 3.17686C13.7246 2.75434 14.2248 2.22666 14.6327 1.6194Z" fill="white"/>
</svg>
