<svg width="39" height="26" viewBox="0 0 39 26" fill="none" xmlns="http://www.w3.org/2000/svg">
<path d="M2.29224 0.19873H37.274C38.194 0.19873 38.9398 0.975098 38.9398 1.93262V23.6084C38.9398 24.5659 38.194 25.3418 37.274 25.3418H2.29224C1.37219 25.3418 0.626465 24.5659 0.626465 23.6084V1.93262C0.626465 0.975098 1.37219 0.19873 2.29224 0.19873Z" fill="#353A40"/>
<path d="M23.3149 16.7627C23.0576 16.6357 22.8495 16.4326 22.6907 16.1567C22.5305 15.8809 22.4504 15.5347 22.4504 15.1187C22.4504 14.5386 22.6094 14.0864 22.9246 13.7627C23.2411 13.4399 23.6807 13.2788 24.246 13.2788C24.8235 13.2788 25.2693 13.4375 25.582 13.7554C25.8949 14.0732 26.0513 14.5176 26.0513 15.0903C26.0513 15.5054 25.9835 15.8462 25.8468 16.1123C25.7102 16.3784 25.5118 16.584 25.2545 16.7329C24.9958 16.8809 24.6732 16.9546 24.2878 16.9546C23.8962 16.9546 23.5712 16.8906 23.3149 16.7627ZM23.7213 14.3452C23.5908 14.5029 23.5243 14.7612 23.5243 15.1235C23.5243 15.4819 23.5896 15.7402 23.7201 15.897C23.8507 16.0547 24.028 16.1333 24.2521 16.1333C24.4836 16.1333 24.6622 16.0557 24.7878 15.9019C24.9147 15.749 24.9774 15.4731 24.9774 15.0757C24.9774 14.7407 24.9122 14.4966 24.7792 14.3413C24.6475 14.1875 24.4689 14.1099 24.2435 14.1099C24.0267 14.1099 23.8531 14.189 23.7213 14.3452ZM13.8094 16.9189C13.6086 16.8945 13.4412 16.8462 13.307 16.7734C13.1727 16.7021 13.0496 16.6001 12.9387 16.4668C12.8279 16.3354 12.7516 16.1987 12.7097 16.0581C12.6432 15.8315 12.61 15.6309 12.61 15.457V13.3394H13.6813V15.5078C13.6813 15.7012 13.7343 15.8525 13.8402 15.9619C13.9448 16.0703 14.0902 16.1245 14.2773 16.1245C14.462 16.1245 14.6074 16.0718 14.712 15.9644C14.8168 15.8564 14.8696 15.7036 14.8696 15.5078V13.3394H15.941V15.457C15.941 15.668 15.9091 15.8647 15.845 16.0522C15.781 16.2393 15.6812 16.4019 15.5446 16.541C15.4078 16.6812 15.2638 16.7798 15.1135 16.8364C14.9054 16.915 14.6542 16.9546 14.3623 16.9546C14.1936 16.9546 14.0089 16.9424 13.8094 16.9189ZM28.9489 16.8945L27.6472 14.9424V16.8945H26.6375V13.3394H27.6399L28.9489 15.3057V13.3394H29.9612V16.8945H28.9489ZM18.9705 16.8945L17.6688 14.9424V16.8945H16.6589V13.3394H17.6626L18.9705 15.3057V13.3394H19.9827V16.8945H18.9705ZM20.74 16.8857V13.3369H21.8199V16.8857H20.74ZM12.5348 11.9043C12.307 11.6719 12.1777 11.376 12.1482 11.0166L13.1703 10.9512C13.1925 11.1211 13.2368 11.2505 13.3046 11.3394C13.4153 11.4834 13.5742 11.5562 13.7786 11.5562C13.9325 11.5562 14.0508 11.519 14.1333 11.4453C14.217 11.3711 14.2577 11.2861 14.2577 11.189C14.2577 11.0981 14.2183 11.0142 14.1394 10.9414C14.0607 10.8687 13.8771 10.8013 13.589 10.7358C13.1185 10.6274 12.7823 10.4834 12.5817 10.3037C12.3796 10.125 12.2787 9.896 12.2787 9.61768C12.2787 9.43555 12.3304 9.26318 12.4338 9.10059C12.5374 8.93799 12.6925 8.81006 12.9006 8.71729C13.1088 8.62402 13.3932 8.57812 13.7552 8.57812C14.1998 8.57812 14.5385 8.66211 14.7711 8.83203C15.0039 9.00098 15.1431 9.26807 15.1874 9.63721L14.1752 9.69775C14.1481 9.5376 14.0914 9.42188 14.0052 9.34912C13.9189 9.27637 13.8008 9.23975 13.6481 9.23975C13.5237 9.23975 13.4301 9.2666 13.3661 9.3208C13.3032 9.375 13.2712 9.44141 13.2712 9.51807C13.2712 9.57471 13.2983 9.62646 13.3501 9.67188C13.4005 9.71875 13.5212 9.76172 13.7109 9.80225C14.1801 9.90576 14.5162 10.0107 14.7195 10.1162C14.9226 10.2222 15.0704 10.354 15.1627 10.5107C15.2551 10.667 15.3007 10.8428 15.3007 11.0361C15.3007 11.2642 15.2391 11.4746 15.116 11.667C14.9928 11.8589 14.8204 12.0054 14.5988 12.1055C14.3783 12.2036 14.0988 12.2544 13.7626 12.2544C13.1715 12.2544 12.7627 12.1372 12.5348 11.9043ZM28.9489 12.1938L27.6472 10.2407V12.1938H26.6375V8.63867H27.6399L28.9489 10.6055V8.63867H29.9612V12.1938H28.9489ZM25.0735 12.1938L24.4996 11.1064C24.4258 10.9663 24.3617 10.875 24.3051 10.833C24.2275 10.7778 24.1388 10.7505 24.0415 10.7505H23.9467V12.1938H22.8679V8.63867H24.6572C24.9897 8.63867 25.2434 8.66699 25.4183 8.72607C25.5944 8.78418 25.736 8.89258 25.8431 9.04883C25.9503 9.20752 26.0045 9.39844 26.0045 9.625C26.0045 9.82324 25.9626 9.99316 25.8813 10.1362C25.7988 10.2788 25.6855 10.3945 25.5415 10.4834C25.4503 10.54 25.3247 10.5869 25.1647 10.625C25.2927 10.668 25.3862 10.7124 25.4442 10.7554C25.4835 10.7852 25.5415 10.8467 25.6154 10.9429C25.6904 11.0376 25.741 11.1113 25.7668 11.1631L26.2865 12.1938H25.0735ZM23.9467 10.0781H24.3999C24.4479 10.0781 24.5427 10.0635 24.6843 10.0303C24.7545 10.0156 24.8124 9.97852 24.858 9.91943C24.9036 9.85889 24.9257 9.79004 24.9257 9.7124C24.9257 9.59814 24.89 9.50928 24.8186 9.44775C24.7484 9.38721 24.6141 9.35645 24.4183 9.35645H23.9467V10.0781ZM19.3447 12.1938V8.63867H22.2227V9.39746H20.421V9.9624H22.0934V10.688H20.421V11.3887H22.2756V12.1938H19.3447ZM16.6923 12.1938V9.5166H15.5974V8.63867H18.8621V9.5166H17.7661V12.1938H16.6923ZM8.8269 12.1938V8.63867H11.7048V9.39746H9.9032V9.9624H11.5743V10.688H9.9032V11.3887H11.7566V12.1938H8.8269ZM6.65955 12.1938L6.05005 9.95508L5.44287 12.1938H4.39001L3.6167 8.63867H4.63635L5.0033 10.6289L5.54138 8.63867H6.55737L7.0968 10.6265L7.46375 8.63867H8.47839L7.71252 12.1938H6.65955Z" fill="#ECD345"/>
<path d="M34.7498 16.957V8.57666H35.9504V16.957H34.7498ZM31.7598 16.957V8.57666H32.9604V16.957H31.7598Z" fill="#ECD345"/>
</svg>
